<svg id="Layer_1" data-name="Layer 1" xmlns="http://www.w3.org/2000/svg" viewBox="0 0 180 200"><defs><style>.cls-1{fill:#ffbe71;}.cls-2{fill:#fff;}.cls-3{fill:#f7931e;}.cls-4{fill:#80020f;}.cls-5{fill:#ff7483;}.cls-6{fill:#e6e6e6;}.cls-7{fill:#006837;}</style></defs><path class="cls-1" d="M143.39,80.31a32.26,32.26,0,0,0-5.51-17.83,12.28,12.28,0,0,0,2.86-2.14c4.21-4.21,4.7-10.55,1.1-14.16s-10-3.11-14.16,1.1a12.36,12.36,0,0,0-2.2,3c-9.35-6.24-21.64-10-35.09-10S64.51,44.05,55.15,50.36A12.25,12.25,0,0,0,52.32,46c-4.22-4.22-10.56-4.71-14.16-1.1S35,54.83,39.26,59.05a12.08,12.08,0,0,0,4.13,2.73,32.42,32.42,0,0,0-6,18.53c0,15.22,11.21,28.46,27.71,35.25l.14,0a.46.46,0,0,0-.07.07l-.07,0-15.94,5c-.23-1-1.5-1.7-3-1.7-1.7,0-3.08.9-3.08,2a1.74,1.74,0,0,0,.77,1.34,5.48,5.48,0,0,0-3.33,6.76l0,.18a5.48,5.48,0,0,0,6.86,3.6l12.65-3.92v16.61a17.45,17.45,0,0,0,1.82,7.8,6.47,6.47,0,0,0-1.82,4.51v8.38H56.32a4.62,4.62,0,0,0,0,9.23H66.57A6.5,6.5,0,0,0,73,169.84h0a6.77,6.77,0,0,0,.08-1v-6.39a17.77,17.77,0,0,0,4.59.6H93.86v9.44a6.45,6.45,0,0,0,1,3.51v0a6.56,6.56,0,0,0,5.48,3h11a4.62,4.62,0,1,0,0-9.23H106.9v-8.38c0-.18,0-.36,0-.54a17.57,17.57,0,0,0,9.1-15.41V133.05l11.56,6.67a5.47,5.47,0,0,0,7.48-2l.09-.16a5.47,5.47,0,0,0-2-7.48l-2.43-1.4c1.24-.26,2.13-1,2.13-1.93,0-1.12-1.37-2-3.07-2-1.51,0-2.77.71-3,1.66l-13.43-7.76h0a17.45,17.45,0,0,0-1.22-1.7C130.52,110.65,143.39,96.62,143.39,80.31ZM52.33,60.7c-2.07,2.07-5.55,2-8.2,0a6.26,6.26,0,0,1-.9-.76c-2.7-2.7-3-6.78-.7-9.09s6.39-2,9.09.7a6.62,6.62,0,0,1,.7.82C54.37,55.08,54.43,58.6,52.33,60.7ZM106,71a4.1,4.1,0,0,1,8.2,0v.88l-4.94,2.77,4.94,2.12v2.15a4.1,4.1,0,0,1-8.2,0Zm-13.27,2.7c3.86-3.87,8.44.7,4.57,4.57l-4.57,4.57-4.58-4.57C84.08,74.22,88.65,69.64,92.73,73.72ZM64.89,71a4.1,4.1,0,1,1,8.19,0v.88l-4.93,2.77,4.93,2.12v2.15a4.1,4.1,0,1,1-8.19,0Zm26.74,36.59c-15.57,0-28.56-8.87-31.58-20.66h63.16C120.19,98.74,107.2,107.61,91.63,107.61Zm35.11-46.33c-2.31-2.32-2-6.39.71-9.1q.17-.16.33-.3c2.7-2.42,6.54-2.63,8.77-.4s2,6-.33,8.67a4.81,4.81,0,0,1-.38.42C133.13,63.28,129.06,63.59,126.74,61.28Z"/><path class="cls-2" d="M52.33,60.7c-2.07,2.07-5.55,2-8.2,0a42.42,42.42,0,0,1,8.19-8.33C54.37,55.08,54.43,58.6,52.33,60.7Z"/><path class="cls-2" d="M73.08,71.9l-4.93,2.77,4.93,2.12v2.15a4.1,4.1,0,1,1-8.19,0V71a4.1,4.1,0,1,1,8.19,0Z"/><path class="cls-2" d="M97.3,78.29l-4.57,4.57-4.58-4.57c-4.07-4.07.5-8.65,4.58-4.57C96.59,69.85,101.17,74.42,97.3,78.29Z"/><path class="cls-2" d="M123.21,87c-3,11.79-16,20.66-31.58,20.66S63.07,98.74,60.05,87Z"/><path class="cls-2" d="M65.25,115.52a.46.46,0,0,0-.07.07l-.07,0Z"/><path class="cls-2" d="M114.2,71.9l-4.94,2.77,4.94,2.12v2.15a4.1,4.1,0,0,1-8.2,0V71a4.1,4.1,0,0,1,8.2,0Z"/><path class="cls-2" d="M136.22,60.15a4.81,4.81,0,0,1-.38.42c-2.71,2.71-6.78,3-9.1.71s-2-6.39.71-9.1q.17-.16.33-.3A44.47,44.47,0,0,1,136.22,60.15Z"/><path class="cls-2" d="M52.33,60.7c-2.07,2.07-5.55,2-8.2,0a6.26,6.26,0,0,1-.9-.76c-2.7-2.7-3-6.78-.7-9.09s6.39-2,9.09.7a6.62,6.62,0,0,1,.7.82C54.37,55.08,54.43,58.6,52.33,60.7Z"/><path class="cls-2" d="M136.22,60.15a4.81,4.81,0,0,1-.38.42c-2.71,2.71-6.78,3-9.1.71s-2-6.39.71-9.1q.17-.16.33-.3c2.7-2.42,6.54-2.63,8.77-.4S138.57,57.45,136.22,60.15Z"/><path class="cls-3" d="M52.33,60.7c-2.07,2.07-5.55,2-8.2,0a6.26,6.26,0,0,1-.9-.76c-2.7-2.7-3-6.78-.7-9.09s6.39-2,9.09.7a6.62,6.62,0,0,1,.7.82C54.37,55.08,54.43,58.6,52.33,60.7Z"/><path class="cls-3" d="M136.22,60.15a4.81,4.81,0,0,1-.38.42c-2.71,2.71-6.78,3-9.1.71s-2-6.39.71-9.1q.17-.16.33-.3c2.7-2.42,6.54-2.63,8.77-.4S138.57,57.45,136.22,60.15Z"/><path d="M73.08,71.9l-4.93,2.77,4.93,2.12v2.15a4.1,4.1,0,1,1-8.19,0V71a4.1,4.1,0,1,1,8.19,0Z"/><path d="M114.2,71.9l-4.94,2.77,4.94,2.12v2.15a4.1,4.1,0,0,1-8.2,0V71a4.1,4.1,0,0,1,8.2,0Z"/><path class="cls-4" d="M123.21,87c-3,11.79-16,20.66-31.58,20.66S63.07,98.74,60.05,87Z"/><path class="cls-2" d="M102.62,88.42V94.3a2.22,2.22,0,0,1-2.22,2.23H87.47a2.23,2.23,0,0,1-2.22-2.23V88.42A2.19,2.19,0,0,1,85.82,87h16.23A2.19,2.19,0,0,1,102.62,88.42Z"/><path class="cls-5" d="M97.3,78.29l-4.57,4.57-4.58-4.57c-4.07-4.07.5-8.65,4.58-4.57C96.59,69.85,101.17,74.42,97.3,78.29Z"/><path class="cls-2" d="M73.08,170.71a4.61,4.61,0,0,1-4.61,4.62h-1.9A6.5,6.5,0,0,0,73,169.84,4.94,4.94,0,0,1,73.08,170.71Z"/><path class="cls-2" d="M100.38,179H99.22a4.61,4.61,0,0,1-4.32-3A6.56,6.56,0,0,0,100.38,179Z"/><path class="cls-2" d="M65.25,115.52a.46.46,0,0,0-.07.07l-.07,0Z"/><rect class="cls-6" x="57.84" y="136.9" width="57.97" height="27.99" rx="12.2"/><path d="M91.3,133.38l-15.13-1a8,8,0,1,0-1.1,16l15.13,1a8,8,0,0,0,1.1-16Zm-.72,14.52L77.05,147c1.73-2.14,2.12-10.18,2.19-12.55l12.21.84a6.31,6.31,0,0,1,5,3c-.87-.22-2,.08-3.92,1S90,141.51,90,144.1c0,1.8,1.93,2.94,3.09,3.47A6.37,6.37,0,0,1,90.58,147.9ZM97.34,142a6.34,6.34,0,0,1-3.58,5.26,5.71,5.71,0,0,0-.84-.6,3.84,3.84,0,0,1-2.22-3.63c-.14-1.78.37-1.46,2.22-3a4.56,4.56,0,0,1,3.84-1l.06.05A6.39,6.39,0,0,1,97.34,142Z"/><path class="cls-7" d="M69.83,49.35s11,2.95,15.42,3.07,13.13.6,17.37,0,10.61-1.72,11.58-4.64-8.44-12.61-11.58-14.28c-2.19-1.17-5.69-3-10-3.15a15,15,0,0,0-5.85,1C80,34,73.77,37.66,71.39,41.53A11.69,11.69,0,0,0,69.83,49.35Z"/><path class="cls-3" d="M92,32.31a19,19,0,0,0-4.37,8,100.68,100.68,0,0,0-2.36,12.15l11.15-.54,6.22.54S101.35,35.88,98.75,34a23.21,23.21,0,0,1-3.85-3.4Z"/><path d="M80,27.55s3.2,2.38,5.29,1.42a52,52,0,0,0,7.42-3.8c1.58-1.2,6.23-2.39,7.71-3.34s7.52-1.19,8,0-1.71,3.47-4.33,3.28S91.39,24.21,89,24s-4.76-1.29-6.9,1.14Z"/><rect x="92.67" y="24.28" width="1.51" height="6.72" transform="matrix(1, 0.07, -0.07, 1, 2.01, -6.06)"/></svg>