<svg id="Layer_1" data-name="Layer 1" xmlns="http://www.w3.org/2000/svg" viewBox="0 0 180 200"><defs><style>.cls-1{fill:#3d73de;}.cls-2{fill:#fff;}.cls-3{fill:#80020f;}.cls-4{fill:#ff7483;}.cls-5{fill:#662d91;}.cls-6{fill:#d4145a;}.cls-7{fill:#9e005d;}</style></defs><path class="cls-1" d="M143.74,86.5a32.26,32.26,0,0,0-5.51-17.83,12.28,12.28,0,0,0,2.86-2.14c4.21-4.21,4.7-10.55,1.1-14.16s-9.95-3.11-14.16,1.1a12.36,12.36,0,0,0-2.2,3c-9.35-6.24-21.64-10-35.09-10S64.86,50.24,55.5,56.55a12.25,12.25,0,0,0-2.83-4.37c-4.22-4.22-10.56-4.71-14.16-1.1S35.39,61,39.61,65.24A12.08,12.08,0,0,0,43.74,68a32.42,32.42,0,0,0-6,18.53c0,15.22,11.21,28.46,27.71,35.25l.14,0a.46.46,0,0,0-.07.07l-.07,0-15.94,5c-.23-1-1.5-1.7-3-1.7-1.7,0-3.08.9-3.08,2a1.74,1.74,0,0,0,.77,1.34,5.48,5.48,0,0,0-3.33,6.76l0,.18a5.48,5.48,0,0,0,6.86,3.6L60.4,135V151.6a17.35,17.35,0,0,0,1.47,7,8,8,0,0,0-1.74,4l-2.45,18.13H52a4.94,4.94,0,1,0,0,9.87H67.6a4.93,4.93,0,0,0,4.84-4,8.14,8.14,0,0,0,1.27-3.38l1.92-14.22a17.13,17.13,0,0,0,2.39.16H91.65a4.13,4.13,0,0,1,3.27-.84l1.94.22,3.75,15.48a8.1,8.1,0,0,0,5.58,5.86h0a3.18,3.18,0,0,0,.62,0h15.59a4.94,4.94,0,1,0,0-9.87h-6.08L112.18,163a17.5,17.5,0,0,0,4.15-11.35V139.24l11.56,6.67a5.47,5.47,0,0,0,7.48-2l.09-.16a5.47,5.47,0,0,0-2-7.48l-2.43-1.4c1.24-.26,2.13-1,2.13-1.93,0-1.12-1.37-2-3.07-2-1.51,0-2.77.71-3,1.66l-13.43-7.76h0a17.45,17.45,0,0,0-1.22-1.7C130.87,116.84,143.74,102.81,143.74,86.5ZM52.68,66.89c-2.07,2.07-5.55,2-8.2,0a6.26,6.26,0,0,1-.9-.76c-2.7-2.7-3-6.78-.7-9.09s6.39-2,9.09.7a6.62,6.62,0,0,1,.7.82C54.72,61.27,54.78,64.79,52.68,66.89Zm40.4,13c3.86-3.87,8.44.7,4.57,4.57l-4.57,4.57L88.5,84.48C84.43,80.41,89,75.83,93.08,79.91ZM92,113.8c-15.57,0-28.56-8.87-31.58-20.66h63.16C120.54,104.93,107.55,113.8,92,113.8Zm35.11-46.33c-2.31-2.32-2-6.39.71-9.1l.33-.3c2.7-2.42,6.54-2.63,8.77-.4s2,6-.33,8.67a4.81,4.81,0,0,1-.38.42C133.48,69.47,129.41,69.78,127.09,67.47Z"/><path class="cls-2" d="M52.68,66.89c-2.07,2.07-5.55,2-8.2,0a42.42,42.42,0,0,1,8.19-8.33C54.72,61.27,54.78,64.79,52.68,66.89Z"/><path class="cls-2" d="M97.65,84.48l-4.57,4.57L88.5,84.48c-4.07-4.07.5-8.65,4.58-4.57C96.94,76,101.52,80.61,97.65,84.48Z"/><path class="cls-2" d="M123.56,93.14c-3,11.79-16,20.66-31.58,20.66S63.42,104.93,60.4,93.14Z"/><path class="cls-2" d="M65.6,121.71a.46.46,0,0,0-.07.07l-.07,0Z"/><path class="cls-2" d="M136.57,66.34a4.81,4.81,0,0,1-.38.42c-2.71,2.71-6.78,3-9.1.71s-2-6.39.71-9.1l.33-.3A44.47,44.47,0,0,1,136.57,66.34Z"/><path class="cls-2" d="M52.68,66.89c-2.07,2.07-5.55,2-8.2,0a6.26,6.26,0,0,1-.9-.76c-2.7-2.7-3-6.78-.7-9.09s6.39-2,9.09.7a6.62,6.62,0,0,1,.7.82C54.72,61.27,54.78,64.79,52.68,66.89Z"/><path class="cls-2" d="M136.57,66.34a4.81,4.81,0,0,1-.38.42c-2.71,2.71-6.78,3-9.1.71s-2-6.39.71-9.1l.33-.3c2.7-2.42,6.54-2.63,8.77-.4S138.92,63.64,136.57,66.34Z"/><path class="cls-3" d="M123.56,93.14c-3,11.79-16,20.66-31.58,20.66S63.42,104.93,60.4,93.14Z"/><path class="cls-2" d="M103,94.61v5.88a2.22,2.22,0,0,1-2.22,2.23H87.82a2.23,2.23,0,0,1-2.22-2.23V94.61a2.19,2.19,0,0,1,.57-1.47H102.4A2.19,2.19,0,0,1,103,94.61Z"/><path class="cls-4" d="M97.65,84.48l-4.57,4.57L88.5,84.48c-4.07-4.07.5-8.65,4.58-4.57C96.94,76,101.52,80.61,97.65,84.48Z"/><path class="cls-2" d="M65.6,121.71a.46.46,0,0,0-.07.07l-.07,0Z"/><ellipse class="cls-2" cx="72.2" cy="77.64" rx="5.45" ry="8.62"/><path class="cls-5" d="M110.61,190l-.21.06a8,8,0,0,1-4.2-.11,3.18,3.18,0,0,0,.62,0Z"/><path class="cls-5" d="M106.19,189.93a4.85,4.85,0,0,1-3.29-1.9A8,8,0,0,0,106.19,189.93Z"/><ellipse class="cls-2" cx="113.17" cy="77.64" rx="5.45" ry="8.62"/><path d="M74.9,78.55l-3.17,1.78,3.17,1.36v1.39a2.64,2.64,0,0,1-5.27,0V78a2.64,2.64,0,1,1,5.27,0Z"/><path d="M115.81,79.1l-3.17,1.78,3.17,1.36v1.39a2.64,2.64,0,0,1-5.27,0v-5.1a2.64,2.64,0,1,1,5.27,0Z"/><path class="cls-6" d="M115,50.45S99.77,81.14,74.32,86.19c-6.11,10.51-8,13.45-9.58,21s7.67,29.84,7.67,29.84-18.49-8.4-24-32.79-13-43.3-3.36-63.9S61.52,15.13,74.32,10.51c6.7,1.06,8.12,3,8.12,3s1.11-4,4.11-4.74,12-3.79,23.84,4.1S129.49,26.73,133,40s11,24,5.53,51.15-8.84,34.42-15,42.47-13.42,6.94-13.42,6.94,7.74-10.42,9.63-22.57,4.58-21.47,4.26-27.79-.15-12.31-1.1-17.84S119.25,53.65,115,50.45Z"/><path class="cls-7" d="M111.24,46.61c-1,3.22-10,15.88-22.24,22.12S68.05,76.26,66.76,84s0-9.94,0-9.94,8.06-4.89,17.73-12,18.05-12.9,21-15.47A4.36,4.36,0,0,1,111.24,46.61Z"/><path class="cls-7" d="M96.09,34.68C90,38.23,73.85,43.71,71,55S61,63.37,60.31,83s-2.9,30.62,0,35.45-7.09-18.37-7.09-22.88,3.22-19.25,4.51-26.87S67.4,46.61,71.59,43.38,96.09,34.68,96.09,34.68Z"/><path class="cls-7" d="M88.71,26.94c-3.26-.32-24.21,5.48-26.79,13.86s-10,26.54-10,33.26-4.39-5.33-4.39-5.33-1.41-7.94,3.75-18.9,7.55-21.62,14.9-22.9S80.3,22.11,86.42,23.4s11.93,2.9,11.93,4.19S88.71,26.94,88.71,26.94Z"/><path class="cls-7" d="M111.24,34.68s2.9-14.5,11.28-2.9,11.6,21.92,11.6,29.65,1.94,17.73,0,26.76a174.45,174.45,0,0,1-5.15,20c-1.94,5.8,1.61-22.24,1.29-28s.32-19-1.61-23.53-3.23-13.86-7.1-18.37S115.11,28.88,111.24,34.68Z"/><path class="cls-7" d="M104.79,23.12s-2.58-6.49,6.45-2.3a52.63,52.63,0,0,1,15.15,11s-8.7-9.79-15.15-6.18S104.79,23.12,104.79,23.12Z"/><path class="cls-7" d="M90.44,15.5c3.39-2.58,12.06-3.22,14-1.61s5.5,1.29,8.4,3.55-10-3.46-14.5-2.22A15.89,15.89,0,0,1,90.44,15.5Z"/><path d="M63,62.51c2.25,2.28,13.83,11.4,15.25,11.86s3.21-6.84,3.21-9.58-2.25-2.28-2.25-2.28.55,4.55-1,5.93S63,62.51,63,62.51Z"/><path d="M122.41,64c-2.25,2.28-13.84,11.4-15.25,11.85s-3.22-6.84-3.22-9.57S106.19,64,106.19,64s-.54,4.55,1,5.92S122.41,64,122.41,64Z"/></svg>