<svg id="Layer_1" data-name="Layer 1" xmlns="http://www.w3.org/2000/svg" viewBox="0 0 180 200"><defs><style>.cls-1{fill:#8972c1;}.cls-2,.cls-7{fill:#fff;}.cls-3{fill:#d1bbe3;}.cls-4{fill:#f6f6f6;}.cls-5{fill:#80020f;}.cls-6{fill:#ff7483;}.cls-7{stroke:#000;stroke-miterlimit:10;}.cls-8{fill:#662d91;}.cls-9{fill:#1b1464;}</style></defs><path class="cls-1" d="M147.65,90.14a32.26,32.26,0,0,0-5.51-17.83A12.28,12.28,0,0,0,145,70.17c4.21-4.21,4.7-10.55,1.1-14.16s-9.95-3.11-14.16,1.1a12.36,12.36,0,0,0-2.2,3c-9.35-6.24-21.64-10-35.09-10S68.77,53.88,59.41,60.19a12.25,12.25,0,0,0-2.83-4.37C52.36,51.6,46,51.11,42.42,54.72s-3.12,9.94,1.1,14.16a12.08,12.08,0,0,0,4.13,2.73,32.42,32.42,0,0,0-6,18.53c0,15.22,11.21,28.46,27.71,35.25l.14,0a.46.46,0,0,0-.07.07l-.07,0-15.94,5c-.23-1-1.5-1.7-3-1.7-1.7,0-3.08.9-3.08,2a1.74,1.74,0,0,0,.77,1.34,5.48,5.48,0,0,0-3.33,6.76l0,.18a5.48,5.48,0,0,0,6.86,3.6l12.65-3.92v16.61a17.35,17.35,0,0,0,1.47,7,8,8,0,0,0-1.74,4l-2.45,18.13H55.92a4.94,4.94,0,1,0,0,9.87H71.51a4.93,4.93,0,0,0,4.84-4,8.14,8.14,0,0,0,1.27-3.38l1.92-14.22a17.13,17.13,0,0,0,2.39.16H95.56a4.13,4.13,0,0,1,3.27-.84l1.94.22,3.75,15.48a8.1,8.1,0,0,0,5.58,5.86h0a3.18,3.18,0,0,0,.62.05h15.59a4.94,4.94,0,1,0,0-9.87h-6.08l-4.15-17.16a17.5,17.5,0,0,0,4.15-11.35V142.88l11.56,6.67a5.47,5.47,0,0,0,7.48-2l.09-.16a5.47,5.47,0,0,0-2-7.48l-2.43-1.4c1.24-.26,2.13-1,2.13-1.93,0-1.12-1.37-2-3.07-2-1.51,0-2.77.71-3,1.66l-13.43-7.76h0a17.45,17.45,0,0,0-1.22-1.7C134.78,120.48,147.65,106.45,147.65,90.14ZM56.59,70.53c-2.07,2.07-5.55,2-8.2,0a6.26,6.26,0,0,1-.9-.76c-2.7-2.7-3-6.78-.7-9.09s6.39-2,9.09.7a6.62,6.62,0,0,1,.7.82C58.63,64.91,58.69,68.43,56.59,70.53Zm40.4,13c3.86-3.87,8.44.7,4.57,4.57L97,92.69l-4.58-4.57C88.34,84.05,92.91,79.47,97,83.55Zm-1.1,33.89c-15.57,0-28.56-8.87-31.58-20.66h63.16C124.45,108.57,111.46,117.44,95.89,117.44ZM131,71.11c-2.31-2.32-2-6.39.71-9.1q.16-.16.33-.3c2.7-2.42,6.54-2.63,8.77-.4s2,6-.33,8.67a4.81,4.81,0,0,1-.38.42C137.39,73.11,133.32,73.42,131,71.11Z"/><path class="cls-2" d="M56.58,70.53c-2.07,2.07-5.55,2-8.2,0a42.42,42.42,0,0,1,8.19-8.33C58.62,64.91,58.68,68.43,56.58,70.53Z"/><path class="cls-2" d="M101.55,88.12,97,92.69,92.4,88.12c-4.07-4.07.5-8.65,4.58-4.57C100.84,79.68,105.42,84.25,101.55,88.12Z"/><path class="cls-2" d="M127.46,96.78c-3,11.79-16,20.66-31.58,20.66S67.32,108.57,64.3,96.78Z"/><path class="cls-2" d="M69.5,125.35a.46.46,0,0,0-.07.07l-.07,0Z"/><path class="cls-2" d="M140.47,70a4.81,4.81,0,0,1-.38.42c-2.71,2.71-6.78,3-9.1.71s-2-6.39.71-9.1q.17-.16.33-.3A44.47,44.47,0,0,1,140.47,70Z"/><path class="cls-2" d="M56.58,70.53c-2.07,2.07-5.55,2-8.2,0a6.26,6.26,0,0,1-.9-.76c-2.7-2.7-3-6.78-.7-9.09s6.39-2,9.09.7a6.62,6.62,0,0,1,.7.82C58.62,64.91,58.68,68.43,56.58,70.53Z"/><path class="cls-2" d="M140.47,70a4.81,4.81,0,0,1-.38.42c-2.71,2.71-6.78,3-9.1.71s-2-6.39.71-9.1q.17-.16.33-.3c2.7-2.42,6.54-2.63,8.77-.4S142.82,67.28,140.47,70Z"/><path class="cls-3" d="M56.58,70.53c-2.07,2.07-5.55,2-8.2,0a6.26,6.26,0,0,1-.9-.76c-2.7-2.7-3-6.78-.7-9.09s6.39-2,9.09.7a6.62,6.62,0,0,1,.7.82C58.62,64.91,58.68,68.43,56.58,70.53Z"/><ellipse class="cls-4" cx="95.42" cy="90.66" rx="43.61" ry="31.93"/><path class="cls-3" d="M140.47,70a4.81,4.81,0,0,1-.38.42c-2.71,2.71-6.78,3-9.1.71s-2-6.39.71-9.1q.17-.16.33-.3c2.7-2.42,6.54-2.63,8.77-.4S142.82,67.28,140.47,70Z"/><path class="cls-5" d="M127.46,96.78c-3,11.79-16,20.66-31.58,20.66S67.32,108.57,64.3,96.78Z"/><path class="cls-2" d="M106.87,98.25v5.88a2.22,2.22,0,0,1-2.22,2.23H91.72a2.23,2.23,0,0,1-2.22-2.23V98.25a2.19,2.19,0,0,1,.57-1.47H106.3A2.19,2.19,0,0,1,106.87,98.25Z"/><path class="cls-6" d="M101.55,88.12,97,92.69,92.4,88.12c-4.07-4.07.5-8.65,4.58-4.57C100.84,79.68,105.42,84.25,101.55,88.12Z"/><path class="cls-2" d="M69.5,125.35a.46.46,0,0,0-.07.07l-.07,0Z"/><ellipse class="cls-7" cx="76.11" cy="81.28" rx="5.45" ry="8.62"/><ellipse class="cls-3" cx="60.52" cy="96.12" rx="7.26" ry="5.45"/><ellipse class="cls-3" cx="131.77" cy="95.36" rx="7.26" ry="5.45"/><path class="cls-8" d="M114.52,193.62l-.21.06a8,8,0,0,1-4.2-.11,3.18,3.18,0,0,0,.62.05Z"/><path class="cls-8" d="M110.1,193.57a4.85,4.85,0,0,1-3.29-1.9A8,8,0,0,0,110.1,193.57Z"/><path class="cls-3" d="M76.3,58a3.33,3.33,0,0,1-4.28-2l-2.91-7.92C66.34,47.69,66,45.84,66,45.84a11.55,11.55,0,0,0,2.32.23l-1.64-4.45a3,3,0,0,1-2.47-2.16,10.71,10.71,0,0,0,1.76.22l-1.29-3.5c-2.81-.43-3.12-2.3-3.12-2.3a12.66,12.66,0,0,0,2.36.24l-1.76-4.8-.15,0C59.23,28.87,58.92,27,58.92,27a12.82,12.82,0,0,0,2.67.24,3.33,3.33,0,0,1,6.17-1.87A7.78,7.78,0,0,0,69.23,24c1-1.23-.43,2.2-.77,3l1.91,5.23a7.71,7.71,0,0,0,1.53-1.37c1.09-1.41-.85,3.2-.85,3.2l1.5,4.09a9.36,9.36,0,0,0,2-1.71c1.09-1.4-.85,3.21-.85,3.21s-.17.12-.48.31l1.56,4.25a7.72,7.72,0,0,0,1.56-1.39c1.09-1.41-.85,3.2-.85,3.2l0,0,2.82,7.66A3.32,3.32,0,0,1,76.3,58Z"/><path class="cls-3" d="M107.93,58a3.33,3.33,0,0,0,4.28-2l2.91-7.92c2.77-.44,3.08-2.29,3.08-2.29a11.55,11.55,0,0,1-2.32.23l1.64-4.45A3,3,0,0,0,120,39.46a10.71,10.71,0,0,1-1.76.22l1.29-3.5c2.81-.43,3.12-2.3,3.12-2.3a12.66,12.66,0,0,1-2.36.24l1.76-4.8.15,0c2.81-.43,3.12-2.31,3.12-2.31a12.82,12.82,0,0,1-2.67.24,3.33,3.33,0,0,0-6.17-1.87A7.78,7.78,0,0,1,115,24c-1-1.23.43,2.2.77,3l-1.91,5.23a7.71,7.71,0,0,1-1.53-1.37c-1.09-1.41.85,3.2.85,3.2l-1.5,4.09a9.36,9.36,0,0,1-2-1.71c-1.09-1.4.85,3.21.85,3.21s.17.12.48.31l-1.56,4.25a7.72,7.72,0,0,1-1.56-1.39c-1.09-1.41.85,3.2.85,3.2l0,0L106,53.76A3.32,3.32,0,0,0,107.93,58Z"/><ellipse class="cls-7" cx="117.08" cy="81.28" rx="5.45" ry="8.62"/><path d="M78.81,82.19,75.64,84l3.17,1.36v1.39a2.64,2.64,0,0,1-5.27,0v-5.1a2.64,2.64,0,1,1,5.27,0Z"/><path d="M119.72,82.74l-3.17,1.78,3.17,1.37v1.38a2.64,2.64,0,1,1-5.27,0v-5.1a2.64,2.64,0,0,1,5.27,0Z"/><path class="cls-9" d="M77.47,64.12,69.39,67a.94.94,0,0,0,.23,1.82l15.49,1.43a.93.93,0,0,0,.55-1.74L78.25,64.2A.93.93,0,0,0,77.47,64.12Z"/><path class="cls-9" d="M113.73,64.73l-7.3,4.5A.94.94,0,0,0,107,71l15.44-1.82a.94.94,0,0,0,.19-1.82l-8.15-2.68A1,1,0,0,0,113.73,64.73Z"/></svg>