<svg id="Layer_1" data-name="Layer 1" xmlns="http://www.w3.org/2000/svg" viewBox="0 0 180 200"><defs><style>.cls-1{fill:#006837;}.cls-2{fill:#8cc63f;}.cls-3{fill:#ff0;}.cls-4{fill:#ff7483;}</style></defs><path class="cls-1" d="M108.23,169c-4.63,3-11.33,6.89-17.26,5.6-5.65-1.23-30.72-14-33-15.22l-.18-.09c-5.4-2.43-11.41-5.39-15-8-7.81-5.52-20.45-35.39-23.43-43.43s.23-36.54,1.38-43,2.06-7-.69-6-8.74-.31-10.57-1.69-6-14.25-5.75-20.85,6.67-18,13.33-24.88S36.73,6.33,42,7s23.21,14.7,25.51,17.46S70.6,35.76,70.6,35.76L98.31,57.34l-6,50.32L89,129.78Z"/><path class="cls-2" d="M176.31,161.14c-1.35,5.44-1.8,7.08-1.8,7.08l-36.75-2.53c-1,1.14-1.82,2-2.15,2.44-1.05,1.45-9.29,1.76-16.38,1.63,2.57,2,5.2,3.55,7,3.66,4.75.3,10.84-2.67,10.69,2.23s-1,12.18-5.34,16.34-8.47,7.13-12,4.61-19.82-28.7-20.46-31.22c-4.83-2.81-10.54-7.56-17.39-15.55a21.28,21.28,0,0,1-4.21-8.91c-1.66,12.25-2.82,24.89-2.82,24.89s3.68,3.1,6.77,6,1.81,5.85-2.58,6.2-18.56-2.67-19.33-6.2S65,162.41,65,162.41c-2.73-11.48,7.18-39.14,13.94-56,1.51-7.51,3.34-14.23,4.65-18.62C67.17,75.89,59.07,57.86,64.92,42.58A30,30,0,0,1,75.8,28.83a15.43,15.43,0,0,1-.52-4c0-7,4.47-12.68,10-12.68,4.63,0,8.52,4,9.65,9.45A63.1,63.1,0,0,1,126,25.46,62.34,62.34,0,0,1,153,45a13.63,13.63,0,0,1,1-1.3c4.55-5.31,11.64-6.72,15.82-3.13s3.88,10.8-.67,16.11a14.46,14.46,0,0,1-8.06,4.9A30,30,0,0,1,160,79c-4.81,12.57-17.87,20.22-33.58,21.37a3.71,3.71,0,0,1,2.17,3.36c.26,4.89,5.41,24.77,5.41,24.77,5.94,6.43,8.24,12.95,10.82,19.31a8.85,8.85,0,0,1,.58,4.24H165a4.54,4.54,0,0,1,1.53-5.52C169.6,144.36,179.06,136.73,176.31,161.14Z"/><path class="cls-3" d="M103.57,21.05s12.61,23.87,10.81,35.58,6.76,4.14,6.76,4.14,4.79-15.24,30.66-17.35c0,0-15.88-14.14-22.88-16.75S108.28,20.93,103.57,21.05Z"/><path d="M93,51.23c2.25,1.12,13.83,5.63,15.25,5.85s3.21-3.38,3.21-4.73-2.25-1.12-2.25-1.12.55,2.24-1,2.92S93,51.23,93,51.23Z"/><path d="M126.38,62c2.25,1.12,13.84,5.63,15.25,5.85s3.22-3.38,3.22-4.73S142.6,62,142.6,62s.54,2.25-1,2.92S126.38,62,126.38,62Z"/><path d="M98.31,77.52s5.49-9.4,13.14-7.15,10.36,11,10.36,11.93S100.26,80.62,98.31,77.52Z"/><path class="cls-4" d="M121.86,65.49l-5.53,3.34L113,63.29c-3-4.92,2.56-8.27,5.54-3.33C123.2,57.12,126.55,62.66,121.86,65.49Z"/><path class="cls-3" d="M96.22,93.78s-4.61,17.38-2.08,30,8.47,26.6,13.07,27.94,17.09,5.49,19.17,3.12,5.79-13.38,3.12-16.94-12.78-17.39-14-21.55-5.41-10.84-4.64-14.7a36.33,36.33,0,0,1,1.24-5Z"/><ellipse class="cls-3" cx="86.01" cy="23.9" rx="5.78" ry="6.4"/><ellipse class="cls-3" cx="162.33" cy="48.98" rx="6.4" ry="5.78" transform="translate(12.91 129.13) rotate(-45)"/></svg>